<svg width="300" height="300" viewBox="0 0 300 300" fill="none" xmlns="http://www.w3.org/2000/svg">
<g clip-path="url(#clip0_1_44)">
<path d="M218.17 247.832L231.505 270.703C233.185 273.535 237.28 273.535 238.855 270.703L252.085 247.727L305.53 155.298C307.42 152.046 307.42 147.954 305.53 144.597L252.085 52.1684L238.855 29.1925C237.175 26.3598 233.08 26.3598 231.505 29.1925L218.17 52.0635L201.79 80.0753L164.2 144.702C162.31 148.059 162.31 152.151 164.2 155.403L201.79 219.82L218.17 247.832ZM239.065 144.702L221.215 113.857C219.64 111.235 219.64 107.982 221.215 105.255L232.24 86.2652C233.5 84.167 236.545 84.167 237.805 86.2652L272.14 145.751C273.715 148.374 273.715 151.626 272.14 154.249L237.805 213.735C236.545 215.833 233.5 215.833 232.24 213.735L221.215 194.745C219.64 192.123 219.64 188.87 221.215 186.143L239.065 155.298C240.955 152.046 240.955 147.954 239.065 144.702Z" fill="#191919"/>
<path d="M176.275 65.4924L192.76 37.3757L206.2 14.3997C207.88 11.567 205.78 8 202.525 8H175.855H68.65C64.87 8 61.3 9.99335 59.41 13.3506L5.86 105.989L-7.37 128.965C-9.05 131.798 -6.95 135.365 -3.695 135.365H22.87H55.42H101.515H129.445C133.225 135.365 136.795 133.371 138.685 130.119L144.04 120.887L176.275 65.4924ZM42.61 101.163L76.945 41.6771C78.52 39.0543 81.25 37.3757 84.295 37.3757H153.07C155.59 37.3757 157.06 39.9985 155.8 42.2017L144.67 61.2959C143.095 63.9187 140.365 65.4924 137.32 65.4924H101.83C98.05 65.4924 94.48 67.4858 92.59 70.843L74.845 101.687C73.27 104.31 70.54 105.989 67.495 105.989H45.445C42.925 105.884 41.35 103.261 42.61 101.163Z" fill="#191919"/>
<path d="M192.76 262.624L176.38 234.508L144.145 179.218L138.79 169.986C136.9 166.734 133.33 164.74 129.55 164.74H101.62H55.42H22.87H-3.695C-6.95 164.74 -9.05 168.307 -7.37 171.14L5.965 194.116L59.515 286.754C61.405 290.007 64.975 292.105 68.755 292.105H175.96H202.63C205.885 292.105 207.985 288.538 206.305 285.705L192.76 262.624ZM76.945 258.428L42.61 198.942C41.35 196.844 42.925 194.116 45.34 194.116H67.39C70.435 194.116 73.27 195.69 74.74 198.417L92.485 229.262C94.375 232.514 97.945 234.612 101.725 234.612H137.215C140.26 234.612 143.095 236.186 144.565 238.809L155.695 257.903C156.955 260.001 155.38 262.729 152.965 262.729H84.4C81.355 262.624 78.52 261.051 76.945 258.428Z" fill="#191919"/>
</g>
<defs>
<clipPath id="clip0_1_44">
<rect width="300" height="300" fill="white"/>
</clipPath>
</defs>
</svg>
