<svg width="231" height="54" viewBox="0 0 231 54" fill="none" xmlns="http://www.w3.org/2000/svg">
<path d="M27.0106 10L30.8273 21.7467L43.1785 21.7467L33.1862 29.0066L37.0029 40.7533L27.0106 33.4934L17.0182 40.7533L20.8349 29.0066L10.8426 21.7467L23.1938 21.7467L27.0106 10Z" fill="#FC7100"/>
<path d="M71.0106 10L74.8273 21.7467L87.1785 21.7467L77.1862 29.0066L81.0029 40.7533L71.0106 33.4934L61.0182 40.7533L64.8349 29.0066L54.8426 21.7467L67.1938 21.7467L71.0106 10Z" fill="#FC7100"/>
<path d="M115.011 10L118.827 21.7467L131.179 21.7467L121.186 29.0066L125.003 40.7533L115.011 33.4934L105.018 40.7533L108.835 29.0066L98.8426 21.7467L111.194 21.7467L115.011 10Z" fill="#FC7100"/>
<path d="M159.011 10L162.827 21.7467L175.179 21.7467L165.186 29.0066L169.003 40.7533L159.011 33.4934L149.018 40.7533L152.835 29.0066L142.843 21.7467L155.194 21.7467L159.011 10Z" fill="#FC7100"/>
<path d="M203.011 10L206.827 21.7467L219.179 21.7467L209.186 29.0066L213.003 40.7533L203.011 33.4934L193.018 40.7533L196.835 29.0066L186.843 21.7467L199.194 21.7467L203.011 10Z" fill="#D9D9D9" fill-opacity="0.14"/>
</svg>
