<svg width="98" height="97" viewBox="0 0 98 97" fill="none" xmlns="http://www.w3.org/2000/svg">
<circle cx="49" cy="48.5" r="48.5" fill="#FC7100" fill-opacity="0.5"/>
<path d="M48.8875 30.1438L44.3687 40.6625H39.85C39.1 40.6625 38.3687 40.7188 37.6562 40.8688L39.5312 36.3688L39.6062 36.2L39.7188 35.9001C39.775 35.7688 39.8125 35.6563 39.8688 35.5625C42.0438 30.5188 44.4812 28.9438 48.8875 30.1438Z" fill="#FC7100"/>
<path d="M61.6184 41.1687L61.5809 41.15C60.4559 40.8312 59.3121 40.6625 58.1496 40.6625H46.4121L50.6309 30.8562L50.6871 30.725C50.9496 30.8187 51.2309 30.95 51.5121 31.0437L55.6559 32.7875C57.9621 33.7437 59.5746 34.7375 60.5684 35.9375C60.7371 36.1625 60.8871 36.3687 61.0371 36.6125C61.2059 36.875 61.3371 37.1375 61.4121 37.4187C61.4871 37.5875 61.5434 37.7375 61.5809 37.9062C61.8621 38.8625 61.8809 39.95 61.6184 41.1687Z" fill="#FC7100"/>
<path d="M49.9746 59.1125H50.4434C51.0059 59.1125 51.4746 58.6063 51.4746 57.9875C51.4746 57.2 51.2496 57.0875 50.7621 56.9L49.9746 56.6188V59.1125Z" fill="#FC7100"/>
<path d="M60.7939 43.85C59.9502 43.6062 59.0689 43.475 58.1502 43.475H39.8502C38.5752 43.475 37.3752 43.7187 36.2502 44.2062C32.9877 45.6125 30.7002 48.8562 30.7002 52.625V56.2812C30.7002 56.7312 30.7377 57.1625 30.7939 57.6125C31.2064 63.575 34.3939 66.7625 40.3564 67.1562C40.7877 67.2125 41.2189 67.25 41.6877 67.25H56.3127C63.2502 67.25 66.9064 63.95 67.2627 57.3875C67.2814 57.0312 67.3002 56.6562 67.3002 56.2812V52.625C67.3002 48.4812 64.5439 44.9937 60.7939 43.85ZM51.4002 55.0625C52.2627 55.3625 53.4252 56 53.4252 57.9875C53.4252 59.6937 52.0939 61.0625 50.4439 61.0625H49.9752V61.475C49.9752 62.0187 49.5439 62.45 49.0002 62.45C48.4564 62.45 48.0252 62.0187 48.0252 61.475V61.0625H47.8564C46.0564 61.0625 44.5752 59.5437 44.5752 57.6687C44.5752 57.125 45.0064 56.6937 45.5502 56.6937C46.0939 56.6937 46.5252 57.125 46.5252 57.6687C46.5252 58.4562 47.1252 59.1125 47.8564 59.1125H48.0252V55.9437L46.6002 55.4375C45.7377 55.1375 44.5752 54.5 44.5752 52.5125C44.5752 50.8062 45.9064 49.4375 47.5564 49.4375H48.0252V49.025C48.0252 48.4812 48.4564 48.05 49.0002 48.05C49.5439 48.05 49.9752 48.4812 49.9752 49.025V49.4375H50.1439C51.9439 49.4375 53.4252 50.9562 53.4252 52.8312C53.4252 53.375 52.9939 53.8062 52.4502 53.8062C51.9064 53.8062 51.4752 53.375 51.4752 52.8312C51.4752 52.0437 50.8752 51.3875 50.1439 51.3875H49.9752V54.5562L51.4002 55.0625Z" fill="#FC7100"/>
<path d="M46.5254 52.5125C46.5254 53.3 46.7504 53.4125 47.2379 53.6L48.0254 53.8812V51.3875H47.5566C46.9754 51.3875 46.5254 51.8937 46.5254 52.5125Z" fill="#FC7100"/>
</svg>
